<svg width="44" height="45" viewBox="0 0 44 45"  xmlns="http://www.w3.org/2000/svg">
<path d="M22.6 44.3C19.7333 44.0333 17.0083 43.3 14.425 42.1C11.8417 40.9 9.55833 39.2583 7.575 37.175C5.59166 35.0917 3.98333 32.6083 2.75 29.725C1.51666 26.8417 0.83333 23.5833 0.699997 19.95C4.06666 19.95 7.06666 20.425 9.7 21.375C12.3333 22.325 14.575 23.7917 16.425 25.775C18.275 27.7583 19.7167 30.2833 20.75 33.35C21.7833 36.4167 22.4 40.0667 22.6 44.3ZM21.95 25.65C20.8833 23.9167 19.75 22.5083 18.55 21.425C17.35 20.3417 15.8167 19.35 13.95 18.45C14.1167 17.1167 14.4333 15.6833 14.9 14.15C15.3667 12.6167 15.95 11.0833 16.65 9.55C17.35 8.01667 18.15 6.5 19.05 5C19.95 3.5 20.9 2.08333 21.9 0.75C22.9667 2.08333 23.9583 3.5 24.875 5C25.7917 6.5 26.6083 8.04167 27.325 9.625C28.0417 11.2083 28.6333 12.7667 29.1 14.3C29.5667 15.8333 29.8833 17.3 30.05 18.7C28.55 19.1667 27.0917 20.0333 25.675 21.3C24.2583 22.5667 23.0167 24.0167 21.95 25.65ZM27.05 43.1C26.85 40.3667 26.5583 37.9 26.175 35.7C25.7917 33.5 25.3 31.6833 24.7 30.25C26.3 26.95 28.925 24.2833 32.575 22.25C36.225 20.2167 39.8 19.4167 43.3 19.85C42.7667 26.1167 41.125 31.15 38.375 34.95C35.625 38.75 31.85 41.4667 27.05 43.1Z" fill="#fff"/>
</svg>
